# xmcd
#
# Track frame offsets: 
#        150
#        27298
#        44993
#        64788
#        91034
#        112705
#        127851
#        150196
#        167215
#        184835
#        201779
#        224725
#        259819
#        277739
#        287484
#        305404
#
# Disc length: 4400 seconds
#
# Revision: 0
# Processed by: cddbd v1.5.2PL0 Copyright (c) Steve Scherf et al.
# Submitted via: ExactAudioCopy v1.0b3
#
DISCID=db112e10
DTITLE=群星 - DTS ES 正品 试音机皇
DYEAR=2012
DGENRE=DTS ES
TTITLE0=超爽低音
TTITLE1=山路十八弯
TTITLE2=往事只能回味
TTITLE3=阿姐鼓
TTITLE4=尘鼓
TTITLE5=迟到
TTITLE6=大河之舞
TTITLE7=渡口
TTITLE8=父亲
TTITLE9=鼓王
TTITLE10=加州旅馆
TTITLE11=流浪者之歌
TTITLE12=男人的臂膀
TTITLE13=女声清唱
TTITLE14=往事如昔
TTITLE15=走过咖啡屋
EXTD=
EXTT0=
EXTT1=
EXTT2=
EXTT3=
EXTT4=
EXTT5=
EXTT6=
EXTT7=
EXTT8=
EXTT9=
EXTT10=
EXTT11=
EXTT12=
EXTT13=
EXTT14=
EXTT15=
PLAYORDER=
